<?xml version="1.0" standalone="no"?>
<!DOCTYPE svg PUBLIC "-//W3C//DTD SVG 20010904//EN"
 "http://www.w3.org/TR/2001/REC-SVG-20010904/DTD/svg10.dtd">
<svg version="1.0" xmlns="http://www.w3.org/2000/svg"
 width="1920.000000pt" height="1920.000000pt" viewBox="0 0 1920.000000 1920.000000"
 preserveAspectRatio="xMidYMid meet">

<g transform="translate(0.000000,1920.000000) scale(0.100000,-0.100000)"
fill="#00a651" stroke="none">
<path d="M18600 18219 c-80 -9 -190 -23 -245 -29 -345 -39 -1003 -126 -1210
-160 -33 -5 -159 -26 -280 -45 -5926 -959 -9279 -3477 -9799 -7360 -14 -106
-21 -162 -48 -435 -18 -171 -18 -1114 0 -1305 46 -506 121 -1040 192 -1370 10
-49 33 -153 49 -230 17 -77 46 -207 66 -290 20 -82 40 -175 46 -205 14 -76 71
-280 78 -280 4 0 42 62 85 138 156 269 556 933 793 1312 1876 3005 3818 5449
5618 7071 1178 1061 2336 1794 3374 2135 151 49 141 47 141 35 0 -4 -46 -34
-102 -66 -583 -329 -1392 -912 -2084 -1501 -1756 -1495 -3315 -3358 -4611
-5509 -726 -1205 -1390 -2547 -1911 -3860 -165 -414 -260 -660 -258 -662 1 -1
44 2 96 7 52 5 154 14 225 20 920 80 2138 239 2720 355 1109 220 2189 664
3140 1290 1756 1157 3045 2907 3620 4915 301 1049 482 2690 525 4750 11 546
13 1149 4 1239 l-7 61 -36 -1 c-20 -1 -101 -10 -181 -20z"/>
<path d="M380 15613 c0 -1600 142 -2987 386 -3783 382 -1243 1098 -2334 2067
-3149 999 -840 2295 -1384 3777 -1586 63 -8 129 -18 147 -21 l31 -5 -24 113
c-33 149 -104 572 -148 878 -61 422 -119 900 -150 1245 -8 88 -20 239 -27 335
-7 111 -18 196 -29 231 -19 59 -92 175 -333 529 -963 1410 -1864 2452 -2619
3026 -113 86 -312 218 -392 260 -51 27 -70 44 -47 44 19 0 471 -232 626 -320
660 -379 1096 -755 2060 -1780 306 -325 792 -835 832 -873 l29 -27 13 97 c29
232 100 573 182 875 143 530 373 1100 638 1581 l71 129 -100 106 c-396 424
-949 841 -1571 1185 -1282 709 -3066 1202 -5159 1427 -102 11 -202 22 -222 25
l-38 5 0 -547z"/>
</g>
</svg>
